<svg width="100" height="100" viewBox="0 0 100 100" fill="none" xmlns="http://www.w3.org/2000/svg">
  <g clip-path="url(#clip0_527_15)">
    <rect width="100" height="100" rx="22" fill="white"/>
    <path d="M62.1278 47.3824L68.0252 53.2797L70.9739 50.331V37.5848L79.9222 35.1866C81.9215 34.6501 83.7444 33.5968 85.2078 32.1327C86.6711 30.6685 87.7234 28.845 88.2588 26.8454C88.7942 24.8458 88.7939 22.7405 88.258 20.741C87.722 18.7416 86.6693 16.9184 85.2055 15.4546C83.7418 13.9909 81.9186 12.9381 79.9191 12.4022C77.9196 11.8662 75.8143 11.8659 73.8147 12.4013C71.8151 12.9368 69.9916 13.989 68.5274 15.4524C67.0633 16.9157 66.0101 18.7386 65.4736 20.738L63.0753 29.6902H50.333L47.3843 32.6389L53.2817 38.5363M62.1278 47.3824L28.8272 80.6829C27.4905 82.0197 25.6819 82.7667 23.7948 82.7667C21.9076 82.7667 20.0991 83.5137 18.7623 84.8504L14.9487 88.6641L12 85.7154L15.8136 81.9017C17.1504 80.565 17.8974 78.7565 17.8974 76.8693C17.8974 74.9821 18.6444 73.1736 19.9811 71.8369L53.2817 38.5363M62.1278 47.3824L53.2817 38.5363" stroke="black" stroke-width="5.89739" stroke-linecap="round" stroke-linejoin="round"/>
    <line x1="9.76777" y1="6.23223" x2="93.7678" y2="90.2322" stroke="white" stroke-width="5"/>
    <path d="M18 21L83 86" stroke="#FF7782" stroke-width="5" stroke-linecap="round"/>
  </g>
  <defs>
    <clipPath id="clip0_527_15">
      <rect width="100" height="100" rx="22" fill="white"/>
    </clipPath>
  </defs>
</svg>
